<?xml version="1.0" encoding="UTF-8" standalone="no"?>
<!DOCTYPE svg PUBLIC "-//W3C//DTD SVG 1.1//EN" "http://www.w3.org/Graphics/SVG/1.1/DTD/svg11.dtd">
<svg width="100%" height="100%" viewBox="0 0 2947 1818" version="1.1" xmlns="http://www.w3.org/2000/svg" xmlns:xlink="http://www.w3.org/1999/xlink" xml:space="preserve" xmlns:serif="http://www.serif.com/" style="fill-rule:evenodd;clip-rule:evenodd;stroke-linejoin:round;stroke-miterlimit:2;">
    <g transform="matrix(1,0,0,1,-4227.11,-331.53)">
        <g transform="matrix(4.16667,0,0,4.16667,3946.36,0)">
            <g transform="matrix(0.732324,-0.680957,-0.680957,-0.732324,838.275,246.524)">
                <path d="M-146.058,-60.698C-146.058,-60.698 -79.098,163.043 -180.299,346.459L-146.058,363.794C-41.693,167.076 -144.695,-61.965 -144.695,-61.965L-146.058,-60.698Z" style="fill:rgb(178,141,53);fill-rule:nonzero;"/>
            </g>
        </g>
        <g transform="matrix(4.16667,0,0,4.16667,3946.36,0)">
            <g transform="matrix(0.529843,-0.848096,-0.848096,-0.529843,726.825,115.475)">
                <path d="M-180.377,-100.476C-180.377,-100.476 -113.381,123.272 -214.634,306.665L-180.377,323.988C-75.988,127.274 -178.983,-101.756 -178.983,-101.756L-180.377,-100.476Z" style="fill:rgb(178,141,53);fill-rule:nonzero;"/>
            </g>
        </g>
        <g transform="matrix(4.16667,0,0,4.16667,3946.36,0)">
            <g transform="matrix(0.341069,-0.940038,-0.940038,-0.341069,615.093,48.0059)">
                <path d="M-213.543,-128.826C-213.543,-128.826 -146.563,94.892 -247.779,278.327L-213.543,295.668C-109.146,98.927 -212.137,-130.138 -212.137,-130.138L-213.543,-128.826Z" style="fill:rgb(178,141,53);fill-rule:nonzero;"/>
            </g>
        </g>
        <g transform="matrix(4.16667,0,0,4.16667,3946.36,0)">
            <g transform="matrix(0.115977,-0.993252,-0.993252,-0.115977,483.203,1.61937)">
                <path d="M-250.33,-151.156C-250.33,-151.156 -183.317,72.592 -284.564,255.99L-250.33,273.308C-145.94,76.636 -248.919,-152.438 -248.919,-152.438L-250.33,-151.156Z" style="fill:rgb(178,141,53);fill-rule:nonzero;"/>
            </g>
        </g>
        <g transform="matrix(4.16667,0,0,4.16667,3946.36,0)">
            <g transform="matrix(-0.250512,-0.968113,-0.968113,0.250512,179.998,96.2606)">
                <path d="M-214.45,-252.664C-214.45,-252.664 -147.48,-28.91 -248.669,154.498L-214.45,171.818C-105.258,-24.228 -213.064,-253.943 -213.064,-253.943L-214.45,-252.664Z" style="fill:rgb(178,141,53);fill-rule:nonzero;"/>
            </g>
        </g>
        <g transform="matrix(4.16667,0,0,4.16667,3946.36,0)">
            <g transform="matrix(1,0,0,1,305.371,515.244)">
                <path d="M0,-27.197L-0.631,-26.916L-0.941,-26.321L-1.041,-25.216L-1.041,-7.717C-1.041,-6.621 -1.141,-5.574 -1.367,-4.57C-1.605,-3.599 -1.988,-2.742 -2.469,-2.013C-3.021,-1.231 -3.701,-0.651 -4.549,-0.204C-5.393,0.241 -6.459,0.469 -7.664,0.469L-8.631,0.369L-9.75,0.092L-10.695,-0.452L-11.113,-1.266L-10.938,-2.276L-10.273,-2.948L-9.246,-2.815L-8.631,-1.823L-7.986,-0.764L-6.99,-0.296L-5.695,-0.841L-4.951,-2.198L-4.6,-3.86L-4.508,-5.368L-4.508,-25.216L-4.6,-26.321L-4.924,-26.916L-5.531,-27.197L-6.602,-27.268L-6.602,-27.666L1.066,-27.666L1.066,-27.268L0,-27.197Z" style="fill:rgb(35,31,32);fill-rule:nonzero;"/>
            </g>
        </g>
        <g transform="matrix(4.16667,0,0,4.16667,3946.36,0)">
            <g transform="matrix(1,0,0,1,338.455,511.085)">
                <path d="M0,-19.496L-5.426,-6.109L5.418,-6.109L0,-19.496ZM7.26,4.287L7.26,3.842L8.664,3.508C8.941,3.283 8.941,2.838 8.664,2.132L6.119,-4.081L-6.211,-4.081L-8.537,1.663C-8.809,2.371 -8.914,2.893 -8.77,3.283C-8.674,3.671 -8.162,3.842 -7.299,3.842L-7.299,4.287L-13.023,4.287L-13.023,3.842L-12.211,3.579L-11.58,3.023L-11.143,2.258L-10.795,1.436L-0.248,-23.783L1.994,-23.783L12.926,2.519C13.215,3.247 13.801,3.694 14.658,3.842L14.658,4.287L7.26,4.287Z" style="fill:rgb(35,31,32);fill-rule:nonzero;"/>
            </g>
        </g>
        <g transform="matrix(4.16667,0,0,4.16667,3946.36,0)">
            <g transform="matrix(1,0,0,1,391.572,487.578)">
                <path d="M0,27.794L0,27.37L0.432,27.37L0.99,27.315L1.465,27.164L1.678,26.825L1.324,25.949L0.693,25.021L-0.098,24.123L-0.74,23.506L-10.545,14.657L-10.545,25.376L-10.445,26.472L-10.184,27.052L-9.578,27.315L-8.508,27.37L-8.508,27.794L-16.064,27.794L-16.064,27.37L-15.018,27.315L-14.424,27.052L-14.104,26.472L-14.041,25.376L-14.041,2.45L-14.104,1.345L-14.424,0.75L-15.018,0.469L-16.064,0.398L-16.064,0L-8.508,0L-8.508,0.398L-9.578,0.469L-10.184,0.75L-10.445,1.345L-10.545,2.45L-10.545,12.869L-0.258,2.929L0.561,2.04L0.957,1.232L0.693,0.639L-0.615,0.398L-0.615,0L6.984,0L6.984,0.398C6.283,0.469 5.752,0.58 5.391,0.731L4.154,1.662L-7.793,13.016L5.943,25.933L7.189,26.939L8.66,27.37L8.66,27.794L0,27.794Z" style="fill:rgb(35,31,32);fill-rule:nonzero;"/>
            </g>
        </g>
        <g transform="matrix(4.16667,0,0,4.16667,3946.36,0)">
            <g transform="matrix(1,0,0,1,435.326,511.085)">
                <path d="M0,-19.496L-5.424,-6.109L5.404,-6.109L0,-19.496ZM7.271,4.287L7.271,3.842L8.652,3.508C8.984,3.283 8.984,2.838 8.652,2.132L6.135,-4.081L-6.266,-4.081L-8.531,1.663C-8.822,2.371 -8.906,2.893 -8.801,3.283C-8.68,3.671 -8.18,3.842 -7.301,3.842L-7.301,4.287L-13.045,4.287L-13.045,3.842L-12.209,3.579L-11.566,3.023L-11.135,2.258L-10.803,1.436L-0.297,-23.783L1.996,-23.783L12.896,2.519C13.178,3.247 13.758,3.694 14.65,3.842L14.65,4.287L7.271,4.287Z" style="fill:rgb(35,31,32);fill-rule:nonzero;"/>
            </g>
        </g>
        <g transform="matrix(4.16667,0,0,4.16667,3946.36,0)">
            <g transform="matrix(1,0,0,1,478.066,502.503)">
                <path d="M0,-2.056L1.973,-2.056C2.963,-2.056 3.898,-2.19 4.867,-2.319C5.836,-2.51 6.656,-2.842 7.436,-3.272C8.199,-3.719 8.836,-4.348 9.281,-5.134C9.748,-5.862 9.955,-6.809 9.955,-7.985C9.955,-8.996 9.748,-9.83 9.395,-10.467L7.881,-12.032C7.252,-12.383 6.508,-12.668 5.666,-12.781C4.846,-12.929 4.004,-13 3.17,-13L2.35,-13L1.471,-12.965L0.615,-12.738L0,-12.292L0,-2.056ZM12.654,12.869C12.006,11.433 11.354,10.11 10.682,8.935C10.029,7.783 9.316,6.721 8.537,5.698C7.775,4.671 6.953,3.702 6.021,2.789C5.143,1.834 4.117,0.886 2.963,-0.119L0,-0.119L0,10.451L0.092,11.547L0.355,12.184L0.992,12.402L2.064,12.445L2.064,12.869L-5.389,12.869L-5.389,12.445L-4.42,12.389L-3.805,12.127L-3.543,11.547L-3.486,10.451L-3.486,-12.475L-3.543,-13.559L-3.805,-14.175L-4.42,-14.456L-5.389,-14.528L-5.389,-14.925L4.4,-14.925C5.631,-14.925 6.762,-14.812 7.881,-14.528C8.963,-14.253 9.955,-13.856 10.809,-13.263C11.65,-12.683 12.359,-11.96 12.838,-11.028C13.35,-10.093 13.604,-8.938 13.604,-7.559C13.604,-6.534 13.398,-5.658 13.01,-4.838C12.654,-4.05 12.119,-3.422 11.461,-2.862C10.809,-2.319 10.066,-1.91 9.211,-1.576C8.334,-1.235 7.459,-0.995 6.523,-0.868C7.32,-0.217 7.961,0.326 8.445,0.808L9.748,2.094L10.846,3.463L12.119,5.024C12.654,5.711 13.156,6.495 13.682,7.338C14.205,8.209 14.629,8.991 15.061,9.757C15.449,10.52 15.846,11.157 16.201,11.659L17.238,12.445L17.238,12.869L12.654,12.869Z" style="fill:rgb(35,31,32);fill-rule:nonzero;"/>
            </g>
        </g>
        <g transform="matrix(4.16667,0,0,4.16667,3946.36,0)">
            <g transform="matrix(1,0,0,1,536.447,510.447)">
                <path d="M0,-17.944C-0.248,-19.028 -0.58,-19.769 -1.045,-20.158C-1.533,-20.553 -2.334,-20.759 -3.416,-20.759L-8.742,-20.759L-8.742,2.507L-8.672,3.622L-8.332,4.241L-7.66,4.458L-6.543,4.501L-6.543,4.925L-14.453,4.925L-14.453,4.501L-13.369,4.458L-12.674,4.241L-12.344,3.622L-12.229,2.507L-12.229,-20.759L-17.635,-20.759C-18.719,-20.759 -19.516,-20.553 -19.982,-20.158C-20.543,-19.734 -20.881,-18.985 -21.086,-17.944L-21.477,-17.944L-21.307,-22.869L0.254,-22.869L0.412,-17.944L0,-17.944Z" style="fill:rgb(35,31,32);fill-rule:nonzero;"/>
            </g>
        </g>
        <g transform="matrix(4.16667,0,0,4.16667,3946.36,0)">
            <g transform="matrix(1,0,0,1,566.342,511.085)">
                <path d="M0,-19.496L-5.424,-6.109L5.393,-6.109L0,-19.496ZM7.252,4.287L7.252,3.842L8.631,3.508C8.949,3.283 8.949,2.838 8.631,2.132L6.098,-4.081L-6.244,-4.081L-8.537,1.663C-8.814,2.371 -8.924,2.893 -8.814,3.283C-8.686,3.671 -8.184,3.842 -7.307,3.842L-7.307,4.287L-13.064,4.287L-13.064,3.842L-12.209,3.579L-11.592,3.023L-11.127,2.258L-10.83,1.436L-0.275,-23.783L1.961,-23.783L12.883,2.519C13.182,3.247 13.76,3.694 14.652,3.842L14.652,4.287L7.252,4.287Z" style="fill:rgb(35,31,32);fill-rule:nonzero;"/>
            </g>
        </g>
        <g transform="matrix(4.16667,0,0,4.16667,3946.36,0)">
            <g transform="matrix(1,0,0,1,200.994,409.778)">
                <path d="M0,6.75C-0.119,14.128 -0.652,39.777 -28.416,39.777C-56.654,39.777 -56.959,15.622 -56.959,9.338L-57.299,-17.627C-57.488,-28.089 -58.693,-30.231 -65.822,-30.792L-65.822,-33.027C-63.172,-32.898 -58.693,-32.708 -53.316,-32.708C-47.982,-32.708 -43.588,-32.898 -40.936,-33.027L-40.936,-30.792C-48.096,-30.231 -49.361,-28.089 -49.475,-17.627L-49.801,-1.448C-49.928,1.083 -49.928,7.626 -49.928,11C-49.928,23.12 -45.859,36.461 -27.687,36.461C-12.068,36.461 -3.508,26.23 -3.508,6.418C-3.508,5.575 -3.621,-1.06 -3.621,-2.009L-3.918,-17.535C-4.258,-28.089 -5.758,-30.231 -12.514,-30.792L-12.514,-33.027C-9.84,-32.898 -4.937,-32.708 -1.598,-32.708C1.4,-32.708 5.992,-32.898 8.439,-33.027L8.439,-30.792C1.926,-30.231 0.41,-28.089 0.324,-17.535L0,6.75Z" style="fill:rgb(35,31,32);fill-rule:nonzero;"/>
            </g>
        </g>
        <g transform="matrix(4.16667,0,0,4.16667,3946.36,0)">
            <g transform="matrix(1,0,0,1,235.74,416.119)">
                <path d="M0,-7.196C1.793,-6.134 5.123,-4.528 9.395,-4.528C18.902,-4.528 25.135,-9.225 25.135,-19.029C25.135,-27.695 20.197,-37.133 7.16,-37.133C4.58,-37.133 1.494,-36.778 0,-36.496L0,-7.196ZM8.527,32.489C5.873,32.397 1.494,32.171 -3.84,32.171C-9.203,32.171 -13.664,32.397 -16.348,32.489L-16.348,30.233C-9.203,29.697 -7.803,27.566 -7.803,17.112L-7.803,-23.967C-7.803,-34.429 -9.203,-36.572 -16.348,-37.133L-16.348,-39.368C-13.664,-39.239 -9.203,-39.049 -3.84,-39.049C-1.838,-39.049 0.426,-39.239 2.98,-39.368C5.553,-39.574 8.229,-39.685 11.053,-39.685C21.172,-39.685 33.227,-35.618 33.227,-20.75C33.227,-7.4 22.455,-1.939 9.395,-1.939C6.318,-1.939 1.891,-2.349 0,-2.577L0,17.112C0,27.566 1.41,29.697 8.527,30.233L8.527,32.489Z" style="fill:rgb(35,31,32);fill-rule:nonzero;"/>
            </g>
        </g>
        <g transform="matrix(4.16667,0,0,4.16667,3946.36,0)">
            <g transform="matrix(1,0,0,1,293.133,416.119)">
                <path d="M0,-7.196C1.832,-6.134 5.164,-4.528 9.408,-4.528C18.937,-4.528 25.133,-9.225 25.133,-19.029C25.133,-27.695 20.203,-37.133 7.172,-37.133C4.584,-37.133 1.506,-36.778 0,-36.496L0,-7.196ZM8.596,32.489C5.9,32.397 1.506,32.171 -3.82,32.171C-9.189,32.171 -13.674,32.397 -16.342,32.489L-16.342,30.233C-9.189,29.697 -7.781,27.566 -7.781,17.112L-7.781,-23.967C-7.781,-34.429 -9.189,-36.572 -16.342,-37.133L-16.342,-39.368C-13.674,-39.239 -9.189,-39.049 -3.82,-39.049C-1.811,-39.049 0.445,-39.239 3.021,-39.368C5.553,-39.574 8.232,-39.685 11.051,-39.685C21.18,-39.685 33.27,-35.618 33.27,-20.75C33.27,-7.4 22.459,-1.939 9.408,-1.939C6.324,-1.939 1.932,-2.349 0,-2.577L0,17.112C0,27.566 1.385,29.697 8.596,30.233L8.596,32.489Z" style="fill:rgb(35,31,32);fill-rule:nonzero;"/>
            </g>
        </g>
        <g transform="matrix(4.16667,0,0,4.16667,3946.36,0)">
            <g transform="matrix(1,0,0,1,386.141,376.751)">
                <path d="M0,71.856C-8.658,71.764 -15.803,71.539 -25.539,71.539C-34.316,71.539 -45.768,71.764 -51.328,71.856L-51.328,69.6C-44.777,69.064 -43.385,66.933 -43.385,56.479L-43.385,15.4C-43.385,4.938 -44.777,2.795 -51.328,2.235L-51.328,0C-46.391,0.128 -37.703,0.319 -27.793,0.319C-19.977,0.319 -11.842,0 -4.357,0L-3.316,16.384L-5.545,16.384C-6.189,8.164 -8.434,2.872 -24.676,2.872L-35.582,2.872L-35.582,32.171L-29.096,32.171C-14.955,32.171 -12.916,31.579 -12.619,24.681L-10.682,24.681C-10.789,26.654 -11.008,30.383 -11.008,33.679C-11.008,37.018 -10.789,40.746 -10.682,42.684L-12.619,42.684C-12.916,35.823 -14.955,35.171 -29.096,35.171L-35.582,35.171L-35.582,58.156C-35.582,68.2 -34.408,68.929 -22.764,68.929C-4.471,68.929 -1.295,64.586 -0.303,54.335L1.91,54.335L0,71.856Z" style="fill:rgb(35,31,32);fill-rule:nonzero;"/>
            </g>
        </g>
        <g transform="matrix(4.16667,0,0,4.16667,3946.36,0)">
            <g transform="matrix(1,0,0,1,548.352,410.467)">
                <path d="M0,6.754C0,-15.805 -13.953,-32.131 -32.504,-32.131C-48.066,-32.131 -60.537,-18.691 -60.537,0.006C-60.537,22.557 -46.482,38.885 -28.012,38.885C-12.428,38.885 0,25.443 0,6.754M-29.801,42.032C-51.107,42.032 -69.018,26.568 -69.018,4.045C-69.018,-18.826 -51.293,-35.278 -30.691,-35.278C-9.391,-35.278 8.518,-19.832 8.518,2.722C8.518,25.555 -9.145,42.032 -29.801,42.032" style="fill:rgb(178,141,53);fill-rule:nonzero;"/>
            </g>
        </g>
        <g transform="matrix(4.16667,0,0,4.16667,3946.36,0)">
            <g transform="matrix(1,0,0,1,633.106,410.467)">
                <path d="M0,6.754C0,-15.805 -14.035,-32.131 -32.525,-32.131C-48.088,-32.131 -60.537,-18.691 -60.537,0.006C-60.537,22.557 -46.516,38.885 -28.012,38.885C-12.465,38.885 0,25.443 0,6.754M-29.803,42.032C-51.123,42.032 -69.031,26.568 -69.031,4.045C-69.031,-18.826 -51.348,-35.278 -30.734,-35.278C-9.43,-35.278 8.504,-19.832 8.504,2.722C8.504,25.555 -9.189,42.032 -29.803,42.032" style="fill:rgb(178,141,53);fill-rule:nonzero;"/>
            </g>
        </g>
        <g transform="matrix(4.16667,0,0,4.16667,3946.36,0)">
            <g transform="matrix(1,0,0,1,740.1,377.219)">
                <path d="M0,74.275C-3,74.162 -9.416,73.943 -13.193,73.943C-17.387,73.943 -22.535,74.275 -26.689,74.275L-26.689,71.914C-18.527,71.573 -17.797,67.214 -17.797,61.599C-17.797,58.803 -17.889,52.877 -18.002,44.805L-18.617,4.696L-18.809,4.696L-47.402,75.281L-49.299,75.281L-79.121,10.08L-79.328,10.286L-78.881,58.131C-78.881,69.098 -77.205,71.332 -70.584,71.914L-70.584,74.275C-73.158,74.162 -78.23,73.943 -81.363,73.943C-84.49,73.943 -89.768,74.162 -92.322,74.275L-92.322,71.914C-85.072,71.332 -83.578,69.098 -83.354,58.131L-82.701,24.376C-82.701,18.824 -82.496,13.192 -82.496,11.091C-82.496,6.706 -82.701,1.343 -92.117,1.343L-92.117,-1.006C-89.768,-0.9 -86.635,-0.707 -83.91,-0.707C-81.287,-0.707 -77.992,-0.9 -75.883,-1.006L-46.264,63.409L-19.629,-1.006C-17.146,-0.9 -12.986,-0.707 -10.08,-0.707C-7.49,-0.707 -3.594,-0.9 -1.023,-1.006L-1.023,1.343C-9.875,1.655 -10.531,5.908 -10.531,11.403C-10.531,13.305 -10.477,18.936 -10.328,23.951L-9.621,58.131C-9.486,68.893 -7.957,71.332 0,71.914L0,74.275Z" style="fill:rgb(178,141,53);fill-rule:nonzero;"/>
            </g>
        </g>
        <g transform="matrix(4.16667,0,0,4.16667,3946.36,0)">
            <g transform="matrix(1,0,0,1,507.607,381.595)">
                <path d="M0,78.269C-23.395,69.899 -45.719,39.893 -54.793,33.929C-44.898,30.406 -37.854,22.689 -37.854,12.699C-37.854,2.873 -47.156,-5.162 -62.908,-5.162C-68.666,-5.162 -77.967,-4.582 -80.813,-4.582C-81.633,-4.582 -82.396,-4.603 -83.111,-4.618C-79.455,-3.968 -76.277,-2.828 -73.641,-1.288C-72.541,-2.404 -70.344,-2.517 -66.146,-2.517C-52.283,-2.517 -45.387,6.213 -45.387,15.325C-45.387,23.712 -50.996,29.826 -58.133,32.79L-74.752,32.79L-74.752,29.996C-76.9,31.594 -79.383,32.868 -82.1,33.813C-80.221,35.068 -77.705,37.393 -74.752,40.336L-74.752,35.492L-64.643,35.492C-54.277,39.948 -34.873,68.154 -11.982,79.053C-8.906,78.515 -6.076,77.639 -3.934,76.67C-4.287,77.616 -6.26,79.053 -9.055,80.376C-4.379,82.278 0.453,83.431 5.369,83.431C14.205,83.431 22.516,78.814 23.359,76.775C17.967,79.181 8.297,81.232 0,78.269" style="fill:rgb(178,141,53);fill-rule:nonzero;"/>
            </g>
        </g>
        <g transform="matrix(4.16667,0,0,4.16667,3946.36,0)">
            <g transform="matrix(1,0,0,1,422.191,427.111)">
                <path d="M0,-12.648L-16.588,-12.648L-16.588,-42.324C-16.588,-47.564 -15.248,-47.931 -8.025,-47.931C-4.076,-47.931 -0.701,-47.169 2.127,-45.937C6.076,-44.247 8.898,-41.524 10.664,-38.298C12.018,-35.765 12.746,-32.93 12.746,-30.021C12.746,-26.987 11.982,-24.241 10.664,-21.837C8.898,-18.598 6.154,-15.967 2.896,-14.071C1.959,-13.526 1.018,-13.057 0,-12.648M81.482,31.373C79.34,32.328 76.51,33.22 73.434,33.763C68.678,34.62 63.148,34.655 58.092,32.845C39.619,26.249 21.787,6.139 10.664,-4.973C7.711,-7.938 5.195,-10.265 3.316,-11.516C6.033,-12.444 8.516,-13.752 10.664,-15.281C16.51,-19.418 20.271,-25.437 20.271,-32.666C20.271,-38.298 17.252,-43.314 11.775,-46.595C9.139,-48.125 5.961,-49.278 2.305,-49.949C0.109,-50.337 -2.258,-50.566 -4.812,-50.566L-5.732,-50.543L-5.957,-50.543C-11.695,-50.474 -20.006,-50.005 -22.687,-50.005C-25.672,-50.005 -27.611,-50.231 -31.615,-50.566L-33.242,-50.677L-33.121,-49.184L-31.877,-49.072C-26.246,-48.478 -24.4,-46.908 -24.4,-42.324L-24.4,13.371C-24.4,17.99 -26.246,19.562 -31.877,20.133L-33.121,20.247L-33.242,21.74L-31.615,21.626C-27.611,21.272 -24.867,21.053 -22.687,21.053L-18.322,21.053C-16.145,21.053 -13.4,21.272 -9.383,21.626L-7.812,21.74L-7.902,20.247L-9.162,20.133C-14.773,19.562 -16.588,17.99 -16.588,13.371L-16.588,-9.889L-6.523,-9.889C-3.914,-8.771 -0.766,-6.162 2.896,-2.716C5.273,-0.459 7.885,2.164 10.664,4.981C24.727,19.164 43.404,38.029 63.459,38.029C68.305,38.029 72.988,36.651 76.361,35.086C79.156,33.763 81.129,32.306 81.482,31.373" style="fill:rgb(35,31,32);fill-rule:nonzero;"/>
            </g>
        </g>
    </g>
</svg>
